<svg xmlns="http://www.w3.org/2000/svg" xmlns:xlink="http://www.w3.org/1999/xlink" baseProfile="full" viewBox="0 0 100 300" width="100" height="300"><defs><path d="M0 50c0-27.6 22.4-50 50-50s50 22.4 50 50-22.4 50-50 50-50-22.4-50-50zm10.7 0c0 19.5 19.8 39.3 39.3 39.3s39.3-19.8 39.3-39.3-19.8-39.3-39.3-39.3-39.3 19.8-39.3 39.3z" id="a"/><path d="M84.1 50c0 17.2-16.9 34.1-34.1 34.1s-34.1-16.9-34.1-34.1 16.9-34.1 34.1-34.1 34.1 16.9 34.1 34.1z" id="e"/><path d="M50 100c-27.6 0-50-22.4-50-50s22.4-50 50-50h.1v10.7h-.1c-19.5 0-39.3 19.8-39.3 39.3s19.8 39.3 39.3 39.3h.1l-.1 10.7z" id="d"/><path d="M49.05 30.6h-7.47v-7.47h7.47v7.47zm0 11.25h-7.47v-7.47h7.47v7.47zm0 11.25h-7.47v-7.47h7.47v7.47zm0 11.25h-7.47v-7.47h7.47v7.47zm0 11.25h-7.47v-7.47h7.47v7.47zm11.25-33.75h-7.47v-7.47h7.47v7.47zm0 11.25h-7.47v-7.47h7.47v7.47zm0 11.25h-7.47v-7.47h7.47v7.47zm11.25-11.07h-7.47v-7.47h7.47v7.47z" id="c"/></defs><defs><g id="b"><circle cx="50" cy="50" r="45" fill="#fff"/><use xlink:href="#a"/></g></defs><g fill="#f0ac5f"><use xlink:href="#b" fill="#ccc"/><use xlink:href="#c" fill="#ddd"/><use xlink:href="#b" y="100" fill="#ccc"/><use xlink:href="#d" y="100"/><use xlink:href="#c" y="100" fill="#ddd"/><use xlink:href="#b" y="200"/><use xlink:href="#e" y="200"/><use xlink:href="#c" y="200" fill="#fff"/></g></svg>