<svg xmlns="http://www.w3.org/2000/svg" xmlns:xlink="http://www.w3.org/1999/xlink" baseProfile="full" viewBox="0 0 100 300" width="100" height="300"><defs><path d="M0 50c0-27.6 22.4-50 50-50s50 22.4 50 50-22.4 50-50 50-50-22.4-50-50zm10.7 0c0 19.5 19.8 39.3 39.3 39.3s39.3-19.8 39.3-39.3-19.8-39.3-39.3-39.3-39.3 19.8-39.3 39.3z" id="a"/><path d="M84.1 50c0 17.2-16.9 34.1-34.1 34.1s-34.1-16.9-34.1-34.1 16.9-34.1 34.1-34.1 34.1 16.9 34.1 34.1z" id="e"/><path d="M50 100c-27.6 0-50-22.4-50-50s22.4-50 50-50h.1v10.7h-.1c-19.5 0-39.3 19.8-39.3 39.3s19.8 39.3 39.3 39.3h.1l-.1 10.7z" id="d"/><path d="M66.96 66.42c0 1.44-1.08 2.61-2.52 2.61h-28.71c-1.35 0-2.52-1.17-2.52-2.61v-35.46c0-1.44 1.17-2.61 2.52-2.61h16.92c1.44 0 3.42.81 4.32 1.8l8.19 8.19c1.08.99 1.8 2.97 1.8 4.32v23.76zm-3.42-.9v-20.25h-10.89c-1.35 0-2.52-1.08-2.52-2.52v-10.98h-13.5v33.75h26.91zm-3.33-14.31c0 .45-.36.9-.9.9h-18.45c-.45 0-.9-.45-.9-.9v-1.71c0-.45.45-.81.9-.81h18.54c.54 0 .9.36.9.81v1.71zm0 6.75c0 .45-.36.9-.9.9h-18.45c-.45 0-.9-.45-.9-.9v-1.62c0-.54.45-.9.9-.9h18.54c.54 0 .9.36.9.9v1.62zm3.15-16.02c-.18-.45-.36-.9-.63-1.08l-8.19-8.28c-.27-.18-.63-.45-1.08-.54v9.9h9.9z" id="c"/></defs><defs><g id="b"><circle cx="50" cy="50" r="45" fill="#fff"/><use xlink:href="#a"/></g></defs><g fill="#6a8da6"><use xlink:href="#b" fill="#ccc"/><use xlink:href="#c" fill="#ddd"/><use xlink:href="#b" y="100" fill="#ccc"/><use xlink:href="#d" y="100"/><use xlink:href="#c" y="100" fill="#ddd"/><use xlink:href="#b" y="200"/><use xlink:href="#e" y="200"/><use xlink:href="#c" y="200" fill="#fff"/></g></svg>