<svg xmlns="http://www.w3.org/2000/svg" xmlns:xlink="http://www.w3.org/1999/xlink" baseProfile="full" viewBox="0 0 100 300" width="100" height="300"><defs><path d="M0 50c0-27.6 22.4-50 50-50s50 22.4 50 50-22.4 50-50 50-50-22.4-50-50zm10.7 0c0 19.5 19.8 39.3 39.3 39.3s39.3-19.8 39.3-39.3-19.8-39.3-39.3-39.3-39.3 19.8-39.3 39.3z" id="a"/><path d="M84.1 50c0 17.2-16.9 34.1-34.1 34.1s-34.1-16.9-34.1-34.1 16.9-34.1 34.1-34.1 34.1 16.9 34.1 34.1z" id="e"/><path d="M50 100c-27.6 0-50-22.4-50-50s22.4-50 50-50h.1v10.7h-.1c-19.5 0-39.3 19.8-39.3 39.3s19.8 39.3 39.3 39.3h.1l-.1 10.7z" id="d"/><path d="M73.08 43.2l-10.53 10.35 2.52 14.67v.63c0 .72-.36 1.44-1.17 1.44-.45 0-.81-.09-1.17-.36l-13.23-6.93-13.14 6.93c-.45.27-.72.36-1.17.36-.9 0-1.26-.72-1.26-1.44 0-.18 0-.36.09-.63l2.52-14.67-10.62-10.35c-.36-.36-.72-.9-.72-1.44 0-.9.9-1.26 1.62-1.35l14.67-2.07 6.66-13.32c.27-.54.72-1.17 1.44-1.17s1.17.63 1.44 1.17l6.57 13.32 14.67 2.07c.72.09 1.62.45 1.62 1.35 0 .54-.36 1.08-.81 1.44z" id="c"/></defs><defs><g id="b"><circle cx="50" cy="50" r="45" fill="#fff"/><use xlink:href="#a"/></g></defs><g fill="#4fbad4"><use xlink:href="#b" fill="#ccc"/><use xlink:href="#c" fill="#ddd"/><use xlink:href="#b" y="100" fill="#ccc"/><use xlink:href="#d" y="100"/><use xlink:href="#c" y="100" fill="#ddd"/><use xlink:href="#b" y="200"/><use xlink:href="#e" y="200"/><use xlink:href="#c" y="200" fill="#fff"/></g></svg>