<svg xmlns="http://www.w3.org/2000/svg" xmlns:xlink="http://www.w3.org/1999/xlink" baseProfile="full" viewBox="0 0 100 300" width="100" height="300"><defs><path d="M0 50c0-27.6 22.4-50 50-50s50 22.4 50 50-22.4 50-50 50-50-22.4-50-50zm10.7 0c0 19.5 19.8 39.3 39.3 39.3s39.3-19.8 39.3-39.3-19.8-39.3-39.3-39.3-39.3 19.8-39.3 39.3z" id="a"/><path d="M84.1 50c0 17.2-16.9 34.1-34.1 34.1s-34.1-16.9-34.1-34.1 16.9-34.1 34.1-34.1 34.1 16.9 34.1 34.1z" id="e"/><path d="M50 100c-27.6 0-50-22.4-50-50s22.4-50 50-50h.1v10.7h-.1c-19.5 0-39.3 19.8-39.3 39.3s19.8 39.3 39.3 39.3h.1l-.1 10.7z" id="d"/><path d="M59.4 52.47c-1.53 1.44-3.24 3.06-5.13 4.59l-.54 10.08c0 .27-.18.45-.45.63l-10.17 6.03c-.09.09-.27.09-.45.09s-.45-.09-.63-.27l-1.71-1.8c-.18-.09-.27-.45-.18-.81l2.25-7.29-7.47-7.47-7.29 2.25c-.09.09-.18.09-.27.09-.27 0-.45-.09-.54-.27l-1.62-1.62c-.27-.27-.36-.72-.18-.99l5.94-10.17c.18-.27.45-.45.63-.45l10.08-.54c1.62-1.89 3.15-3.6 4.59-5.13 6.66-6.66 11.7-8.73 20.79-8.73.54 0 .99.45.99.9.09 8.73-2.34 14.58-8.64 20.88zm.27-17.01c-2.07 0-3.78 1.62-3.78 3.69s1.71 3.69 3.78 3.69 3.69-1.62 3.69-3.69c0-1.98-1.71-3.69-3.69-3.69z" id="c"/></defs><defs><g id="b"><circle cx="50" cy="50" r="45" fill="#fff"/><use xlink:href="#a"/></g></defs><g fill="#4fbad4"><use xlink:href="#b" fill="#ccc"/><use xlink:href="#c" fill="#ddd"/><use xlink:href="#b" y="100" fill="#ccc"/><use xlink:href="#d" y="100"/><use xlink:href="#c" y="100" fill="#ddd"/><use xlink:href="#b" y="200"/><use xlink:href="#e" y="200"/><use xlink:href="#c" y="200" fill="#fff"/></g></svg>